<!DOCTYPE svg PUBLIC "-//W3C//DTD SVG 1.1//EN" "http://www.w3.org/Graphics/SVG/1.1/DTD/svg11.dtd">
<!-- Uploaded to: SVG Repo, www.svgrepo.com, Transformed by: SVG Repo Mixer Tools -->
<svg fill="#ffff" height="800px" width="800px" version="1.1" id="Layer_1" xmlns="http://www.w3.org/2000/svg" xmlns:xlink="http://www.w3.org/1999/xlink" viewBox="0 0 511.999 511.999" xml:space="preserve" stroke="#ffff">
<g id="SVGRepo_bgCarrier" stroke-width="0"/>
<g id="SVGRepo_tracerCarrier" stroke-linecap="round" stroke-linejoin="round"/>
<g id="SVGRepo_iconCarrier"> <g> <g> <circle cx="98.482" cy="52.742" r="40.052"/> </g> </g> <g> <g> <path d="M271.474,124.114c-7.939-7.134-20.158-6.481-27.291,1.457l-41.659,46.358l-14.761-36.319 c-7.42-18.255-24.947-30.051-44.652-30.051h-12.725c-2.532,6.614-21.24,55.491-23.956,62.586l5.648-26.606 c0.396-1.868,0.109-3.817-0.812-5.491l-7.757-14.107l6.896-12.542c1.026-1.867-0.326-4.16-2.46-4.16H89.019 c-2.131,0-3.488,2.29-2.46,4.16l6.896,12.542l-7.785,14.159c-0.903,1.642-1.198,3.55-0.833,5.388l4.939,26.657 c-4.785-12.27-19.655-52.19-23.708-62.586H46.446c-25.091,0-45.607,20.413-45.731,45.503L0,293.037 c-0.054,10.672,8.555,19.369,19.227,19.421c0.033,0,0.066,0,0.099,0c10.627,0,19.27-8.589,19.323-19.228l0.713-141.973v-0.002 c0.011-2.057,1.685-3.717,3.742-3.712s3.721,1.675,3.721,3.733l0.009,324.842c0,12.808,10.383,23.19,23.19,23.19 c12.808,0,23.19-10.383,23.19-23.19v-185.36h10.013v185.361c0,12.808,10.383,23.19,23.19,23.19s23.19-10.383,23.19-23.19 c0-108.016-0.386-265.954-0.419-322.856c0-0.916,0.643-1.706,1.54-1.892c0.897-0.185,1.802,0.284,2.165,1.125 c2.966,6.879,9.347,22.971,25.455,62.602c5.357,13.183,22.731,16.263,32.277,5.64l62.307-69.332 C280.065,143.467,279.413,131.249,271.474,124.114z"/> </g> </g> <g> <g> <circle cx="394.781" cy="159.353" r="38.6"/> </g> </g> <g> <g> <path d="M499.766,208.252c-7.67-0.97-14.668,4.457-15.638,12.122l-18.804,148.479h-12.381V241.646 c0.116-15.191-11.785-27.286-26.953-26.209l-44.258,3.141c-14.365,1.019-25.184,13.491-24.165,27.857l1.795,25.299l35.25-31.859 l-29.785,49.838l-60.426,2.894c-7.256,0.348-13.266,5.071-15.602,11.496c-8.706,0-17.224,0-27.405,0v-60l14.962-10.644 c5.174,1.443,10.296,0.367,14.288-2.472l14.286-10.163c7.578-5.391,9.352-15.905,3.96-23.484 c-5.393-7.578-15.906-9.352-23.484-3.96l-14.286,10.163c-4.314,3.069-6.739,7.799-7.04,12.702l-19.386,13.791 c-2.788,1.983-4.444,5.192-4.444,8.614v65.452h-41.462c-3.55,0-6.428,2.879-6.428,6.428v163.441c0,3.55,2.879,6.429,6.428,6.429 h7.687v12.479c0,3.55,2.879,6.429,6.429,6.429h17.455c3.55,0,6.429-2.879,6.429-6.429v-12.479h28.067v12.479 c0,3.55,2.879,6.429,6.428,6.429h17.456c3.55,0,6.429-2.879,6.429-6.429v-12.479h7.688c3.551,0,6.427-2.877,6.427-6.429 c0-14.422,0-45.424,0-77.163l15.64,85.284c2.083,11.39,13.002,18.954,24.418,16.869c11.401-2.085,18.954-13.018,16.869-24.418 l-15.112-82.649c2.566,3.019,6.386,4.94,10.659,4.94h45.15v56.857l-32.896,26.854c-4.523,3.693-5.196,10.352-1.504,14.876 c3.694,4.524,10.353,5.196,14.876,1.504l30.116-24.629l30.078,24.629c4.523,3.691,11.182,3.018,14.876-1.504 c3.693-4.523,3.018-11.183-1.504-14.876l-32.897-26.854v-56.858h49.604c7.047,0,12.995-5.242,13.88-12.233l20.352-160.712 C512.859,216.224,507.431,209.223,499.766,208.252z M405.68,325.051c-2.793,9.907-11.575,16.509-21.318,16.991 c-22.125,1.041-15.864,0.739-56.151,2.811c-7.517,0.386-14.507,4.175-18.926,10.398c0-10.305,0-19.824,0-27.862l66.581-3.188 c5.849-0.281,11.171-3.469,14.175-8.496l34.596-57.888L405.68,325.051z"/> </g> </g> </g>
</svg>